<svg preserveAspectRatio="none" overflow="visible" style="display: block;" width="20" height="20" viewBox="0 0 20 20" fill="none" xmlns="http://www.w3.org/2000/svg">
<g id="Frame">
<path id="Vector" d="M19.5826 5.41613C19.3527 4.59659 18.6741 3.95116 17.8147 3.73247C16.2545 3.33332 10 3.33332 10 3.33332C10 3.33332 3.74554 3.33332 2.18527 3.73035C1.32366 3.94903 0.647321 4.59447 0.417411 5.414C-6.81196e-08 6.9002 0 9.99999 0 9.99999C0 9.99999 -6.81196e-08 13.0998 0.417411 14.5839C0.647321 15.4034 1.32589 16.0488 2.18527 16.2675C3.74554 16.6667 10 16.6667 10 16.6667C10 16.6667 16.2545 16.6667 17.8147 16.2675C18.6763 16.0488 19.3527 15.4034 19.5826 14.5839C20 13.0998 20 9.99999 20 9.99999C20 9.99999 20 6.9002 19.5826 5.41613ZM8.01339 12.845V7.15498L13.192 9.97876L8.01339 12.845Z" fill="black"/>
</g>
</svg>
